<svg id="Layer_1" data-name="Layer 1" xmlns="http://www.w3.org/2000/svg" viewBox="0 0 567.31 236.21"><defs><style>.cls-1{fill:#26a8df;}.cls-2{fill:#6d6e70;}.cls-3{fill:#158cb5;}.cls-4{fill:#01a8d3;}</style></defs><title>OR-Logo</title><path class="cls-1" d="M410.55,48c.28.23.56.46.85.68,6.77,5.07,5.44,9.41-.42,14.44-5.34,4.58-11.82,7.44-18.19,10.33-19.44,8.82-40.2,12-61.19,14.26-16.82,1.83-33.68,2.26-50.58,2.49-5.77.08-11.53-.22-17.23-.57-16.15-1-32-3.65-47.24-9.58-3.47-1.35-7-2.56-9.92-5-3.61-3-6.24-8.07-3.83-12.57a9.38,9.38,0,0,1,4.36-4.19,64.56,64.56,0,0,1,20.52-5.52C234.84,52,242,52,249.24,51.65c10.56-.48,21.12-.7,31.67-1.1,7.23-.27,14.5-1.22,21.33-3.91a18.09,18.09,0,0,0,8.49-6.3,7.89,7.89,0,0,0,1.45-4.77c-.06-7.06,2.57-9.71,9.38-10.41,9.12-.95,18.1.57,27,2.17,9.66,1.73,19.22,4,29.21,6.83-10.16,2.13-19.81,4.1-29.42,6.19-2.87.62-5.87.76-8.56,2.11-1.41,3.86-1,5.11,2.35,6.62q9.34,4.26,18.68,8.55a3.74,3.74,0,0,0,2.57.3c8.59-1.91,17.19-3.74,25.8-5.56C396.32,50.88,403.44,49.45,410.55,48Z" transform="translate(-16.34 -10.39)"/><path class="cls-2" d="M431.07,43.6c5.08,4.45,8.84,9.62,10,16.52,1,6.37-.82,12.13-3,17.9-3.48,9.21-10.94,14.68-18.85,19.49-15.25,9.26-32,14.38-49.54,17.28-12.18,2-24.42,3.42-36.73,4.38-11,.85-22,1.27-33,1.68-7.86.3-15.72.53-23.57.29-13.24-.4-26.47-1.06-39.66-2.54-15.8-1.78-31.45-4.16-46.51-9.46C178.39,105,167.81,98.71,159.3,89.31a36.18,36.18,0,0,1-9-18.49,15.82,15.82,0,0,1,0-1.94,41.74,41.74,0,0,0,11.28,10c11.48,7.36,24.2,11.65,37.37,14.69a237,237,0,0,0,32.81,5c10.52.91,21.08,1.15,31.61,1.76,10.06.58,20-.36,30-.36,9.36,0,18.74-.77,28.08-1.52,20.49-1.64,41-3.67,60.56-10.4,12.8-4.39,25-10.07,34.6-20.07,3.5-3.65,5.89-8,5.73-13.33-.09-3.25-1.89-5.77-3.31-8.46A81.61,81.61,0,0,1,431.07,43.6Z" transform="translate(-16.34 -10.39)"/><path class="cls-2" d="M283.37,93.69a205.19,205.19,0,0,1-35,.81c-17.63-.84-35.27-2.09-52.48-6.41-9.83-2.47-19-6.36-26.21-13.9S163.3,55.78,172,49.57c6.66-4.77,14.32-6.74,22.18-8.1,9.17-1.58,18.42-2,27.72-2.38,8.23-.32,16.44-.28,24.66-.27,9.34,0,18.49-1.54,27.64-3,2.68-.44,5.21-2,7.74-3.18a3.44,3.44,0,0,0,2-4.06,10.84,10.84,0,0,0-.29-1.32c-2.78-8.61-.31-9.37,6.09-12.29,5.65-2.58,11.79-3.28,17.89-3.88a170.49,170.49,0,0,1,22.21-.54,247.79,247.79,0,0,1,30.62,3,334.4,334.4,0,0,1,38.81,8.37,88.09,88.09,0,0,1,13.28,4.79c-3.42.9-6,1.8-9.11.91a223.89,223.89,0,0,0-36.26-7.26c-7.78-.9-15.6-1.49-23.44-1.93a99.55,99.55,0,0,0-31.53,3.44,15.17,15.17,0,0,0-7,3.92,3,3,0,0,0-.59,4.1c2.86,5.17,2,7.44-3.17,10.16-5,2.58-10.39,2.88-15.74,3.5-9,1-18,1.08-27,1.21q-12.85.19-25.69,1.07c-10.12.68-20,2.24-29.12,7.31S193.16,67.38,200.39,75c5.88,6.17,13.5,9.27,21.48,11.49,10,2.79,20.28,4,30.62,5,9.08.85,18.18,1.11,27.27,1.59A29.8,29.8,0,0,1,283.37,93.69Z" transform="translate(-16.34 -10.39)"/><path class="cls-3" d="M431.07,43.6a81.61,81.61,0,0,0-12,2.56A34.82,34.82,0,0,0,410.55,48c-7.11,1.46-14.23,2.9-21.34,4.4C380.6,54.19,372,56,363.41,57.94a3.74,3.74,0,0,1-2.57-.3q-9.33-4.29-18.68-8.55c-3.32-1.51-3.76-2.76-2.35-6.62,6.8,2.86,13.62,5.7,20.4,8.6a7.16,7.16,0,0,0,4.45.4q41.31-8.1,82.66-16c.67-.13,2.17-1.45,2.15.56,0,1.34,1.18,3.32-1.55,3.84-5.14,1-10.25,2.13-15.36,3.24A10.83,10.83,0,0,0,431.07,43.6Z" transform="translate(-16.34 -10.39)"/><path class="cls-2" d="M394.06,30.66c-7.28,2.93-13-1.19-19-2.91A108.82,108.82,0,0,1,394.06,30.66Z" transform="translate(-16.34 -10.39)"/><path class="cls-2" d="M124.88,242.19c-19.09,9.62-42.83-.11-55.16-32.47l-3.49-9.32H40.35l-5.71,13.85c-1.79,4.37,1.36,6.86,4.18,6.86h1v1.08H16.34V221.1h1c3.06,0,6.76-1.76,9.08-6l24.41-55.56C46.09,149,39.28,140,27.14,144.42l-.25-1.1c22.54-11.73,35.36,3,43.5,22.77l15.88,39.15c7.1,17.62,18.57,40.79,38.44,35.87ZM64.5,195.79l-7.6-20.27c-.92-2.41-1.86-5.13-2.9-8L42.26,195.79Z" transform="translate(-16.34 -10.39)"/><path class="cls-2" d="M143.17,188,139.11,206H93.56v-.88h1.11a5.64,5.64,0,0,0,5.63-5.53V150.81a5.64,5.64,0,0,0-5.64-5.53H93.58v-.88h26.72v.88h-1.11a5.64,5.64,0,0,0-5.64,5.53v51.41h11.55c8.79,0,14.49-5.46,17.22-14.19Z" transform="translate(-16.34 -10.39)"/><path class="cls-2" d="M183.74,144.32a38,38,0,0,0,10.42-1.6v15.33h-.89v-1c0-5.36-3.4-8.84-8.8-9H172.65v51.62a5.64,5.64,0,0,0,5.63,5.46h1.11V206H152.67v-.88h1.11a5.63,5.63,0,0,0,5.63-5.39V148H147.6c-5.4.14-8.81,3.62-8.8,9v1h-.89V142.72a38,38,0,0,0,10.42,1.6Z" transform="translate(-16.34 -10.39)"/><path class="cls-2" d="M229.41,144.4c10.67,0,20.92,4.34,20.92,16.59,0,7.41-4.42,15.72-14.4,16.72,3.72,1.22,7,4.71,9,7.79.27.43,5.54,8.79,8.86,12.93,3.79,4.83,6.3,6.6,10.89,6.67V206h-8.57c-9.62,0-16.32-2.27-20.66-9.12a126,126,0,0,1-7.33-15.07c-1.65-3.7-3.68-5.54-6-5.93V175h2.69c4.73,0,9.54-2.46,11.11-10.17a18.09,18.09,0,0,0,.33-4.26c-.35-8.41-4.6-12.18-10.38-12.32-2.33-.1-5.57,0-6.67,0v51.32a5.64,5.64,0,0,0,5.65,5.53H226V206H199.22v-.88h1.11a5.63,5.63,0,0,0,5.63-5.49V150.81a5.63,5.63,0,0,0-5.63-5.53h-1.12v-.87Z" transform="translate(-16.34 -10.39)"/><path class="cls-2" d="M317.2,200c1.9,3.6,4.92,5.1,7.51,5.1h.74V206h-28v-.87h.77c2.27,0,4.74-2,3.4-5.52l-4.33-10.87H276.61l-4.5,10.87c-1.44,3.52,1.09,5.52,3.36,5.52h.77V206H257.39v-.88h.79c2.5,0,5.53-1.46,7.4-5l20.34-46c.63-1.34,4.11-9,4.33-11.53H291Zm-21.42-15-8.61-21.6-9,21.6Z" transform="translate(-16.34 -10.39)"/><path class="cls-2" d="M415.89,171.56c2.32,23.24-11,35.65-30.22,35.65-24.46,0-38.76-13.31-38.76-31.84,0-19.17,15.28-32.2,38.27-32.2,9.18,0,17.49,2.11,22.59,4.77l.17,15.09h-.73c-3.21-11.77-12.5-16.15-21.72-16.15-14.86,0-24.23,11.21-24.23,27.78s9.39,28.52,25.66,28.85c16.68,0,28.65-11.37,28.18-31.95Z" transform="translate(-16.34 -10.39)"/><path class="cls-2" d="M492.49,175.19c0,19.77-13.85,32-35.47,32s-35.47-12.25-35.47-32,13.85-32,35.47-32S492.49,155.43,492.49,175.19Zm-14.46,0c0-17.47-8.12-28.32-21-28.32s-21,10.85-21,28.32,8.12,28.32,21,28.32S478,192.66,478,175.19Z" transform="translate(-16.34 -10.39)"/><path class="cls-2" d="M529,175.19c0,19.77-13.85,32-35.47,32s-35.47-12.25-35.47-32,13.85-32,35.47-32S529,155.43,529,175.19Zm-14.46,0c0-17.47-8.12-28.32-21-28.32s-21,10.85-21,28.32,8.12,28.32,21,28.32S514.54,192.66,514.54,175.19Z" transform="translate(-16.34 -10.39)"/><path class="cls-2" d="M583.66,188,579.6,206H534v-.88h1.11a5.64,5.64,0,0,0,5.63-5.53V150.81a5.64,5.64,0,0,0-5.63-5.53h-1.11v-.88h26.72v.88h-1.11a5.64,5.64,0,0,0-5.64,5.53v51.41h11.55c8.79,0,14.49-5.46,17.22-14.19Z" transform="translate(-16.34 -10.39)"/><path class="cls-4" d="M163,230.59c.13,7.62-4.52,15.33-15.07,15.33H136.07V215.78h11.84C158.24,215.78,162.84,223.14,163,230.59Zm-21.27,9.86h6.2c6.84,0,9.56-5,9.43-9.9-.13-4.69-2.88-9.38-9.43-9.38h-6.2Z" transform="translate(-16.34 -10.39)"/><path class="cls-4" d="M223.65,245.92H201.09V215.78h22.56v5.51H206.73v6.93H223v5.29H206.73v6.8h16.92Z" transform="translate(-16.34 -10.39)"/><path class="cls-4" d="M289.06,242.13a15.88,15.88,0,0,1-11.45,4.48c-11.19,0-15.93-7.71-16-15.54s5.08-15.89,16-15.89a15.54,15.54,0,0,1,11.06,4.61l-3.79,3.66a10.36,10.36,0,0,0-7.28-2.84c-7.28,0-10.42,5.42-10.38,10.46s2.93,10.2,10.38,10.2a11.1,11.1,0,0,0,7.58-3.06Z" transform="translate(-16.34 -10.39)"/><path class="cls-4" d="M350.93,216l-13.39,14.42,14.51,15.2v.34h-7l-12.61-13.35v13.35h-5.68V215.78h5.68v12.74l11.45-12.74h7.06Z" transform="translate(-16.34 -10.39)"/><path class="cls-4" d="M438.22,215.78v24.88h15.5v5.25H432.54V215.78Z" transform="translate(-16.34 -10.39)"/><path class="cls-4" d="M497.86,215.78v24.88h15.5v5.25H492.18V215.78Z" transform="translate(-16.34 -10.39)"/><path class="cls-4" d="M578.38,242.13a15.88,15.88,0,0,1-11.45,4.48c-11.19,0-15.93-7.71-16-15.54s5.08-15.89,16-15.89A15.54,15.54,0,0,1,578,219.79l-3.79,3.66a10.36,10.36,0,0,0-7.28-2.84c-7.28,0-10.42,5.42-10.38,10.46s2.93,10.2,10.38,10.2a11.1,11.1,0,0,0,7.58-3.06Z" transform="translate(-16.34 -10.39)"/></svg>